<?xml version="1.0" standalone="no"?>
<!DOCTYPE svg PUBLIC "-//W3C//DTD SVG 20010904//EN"
 "http://www.w3.org/TR/2001/REC-SVG-20010904/DTD/svg10.dtd">
<svg version="1.0" xmlns="http://www.w3.org/2000/svg"
 width="500.000000pt" height="500.000000pt" viewBox="0 0 500.000000 500.000000"
 preserveAspectRatio="xMidYMid meet">
<metadata>
Created by potrace 1.14, written by Peter Selinger 2001-2017
</metadata>
<g transform="translate(0.000000,500.000000) scale(0.100000,-0.100000)"
fill="#000000" stroke="none">
<path d="M2486 4891 c-3 -6 -1 -218 3 -232 0 -4 22 -6 49 -6 71 1 278 -18 313
-29 9 -2 32 -7 51 -9 19 -2 77 -16 129 -30 52 -15 103 -29 114 -32 11 -2 29
-8 40 -13 11 -4 58 -22 105 -40 222 -84 457 -230 657 -408 l72 -64 81 83 c44
46 80 87 80 90 0 4 -34 37 -75 74 -336 302 -760 508 -1203 585 -139 24 -409
44 -416 31z"/>
<path d="M1361 4618 c-219 -117 -419 -267 -595 -446 -129 -131 -193 -210 -300
-372 -75 -113 -181 -310 -214 -400 -74 -196 -99 -275 -128 -407 -16 -73 -32
-170 -40 -243 -3 -25 -7 -63 -9 -85 -6 -47 -6 -334 -1 -385 8 -78 18 -148 27
-200 6 -30 13 -68 15 -85 16 -95 90 -342 129 -430 128 -290 274 -522 441 -703
l59 -64 83 81 c45 45 82 85 82 89 0 5 -10 17 -21 28 -12 10 -51 55 -86 99 -35
44 -71 88 -79 98 -8 9 -14 21 -14 26 0 5 -3 11 -7 13 -18 7 -87 122 -159 263
-44 85 -132 298 -137 334 -1 9 -6 21 -9 27 -4 6 -9 22 -12 37 -3 15 -7 35 -10
45 -3 9 -7 28 -10 42 -2 14 -9 45 -14 70 -29 128 -37 226 -36 445 0 172 4 233
23 339 90 509 339 955 717 1284 27 23 54 46 59 50 162 125 246 179 382 248
l51 26 -35 72 c-19 39 -42 88 -51 109 -9 20 -19 37 -22 36 -3 0 -38 -19 -79
-41z"/>
<path d="M2378 4275 c-2 -1 -34 -5 -73 -9 -212 -19 -430 -83 -639 -188 -93
-46 -91 -39 -37 -131 27 -45 59 -100 71 -122 12 -22 26 -44 30 -50 4 -5 19
-30 32 -55 14 -25 33 -59 43 -75 l18 -30 72 36 c118 60 268 110 375 124 25 3
57 8 72 11 82 16 371 -1 438 -26 14 -5 36 -11 50 -13 14 -2 32 -6 40 -9 8 -3
38 -14 65 -24 128 -45 264 -120 371 -205 l61 -49 44 49 c24 26 73 81 109 121
36 40 88 98 117 129 l52 56 -28 25 c-77 69 -154 124 -260 187 -83 49 -236 123
-255 123 -7 0 -16 4 -22 8 -26 23 -286 90 -419 107 -52 7 -321 15 -327 10z"/>
<path d="M4570 3483 c-52 -25 -100 -50 -107 -55 -8 -7 -4 -25 16 -71 26 -57
42 -94 46 -107 1 -3 5 -13 8 -22 15 -38 20 -53 23 -63 1 -5 12 -41 24 -80 24
-82 55 -227 65 -305 4 -30 10 -75 14 -100 8 -50 6 -373 -3 -435 -3 -22 -7 -54
-10 -70 -28 -199 -88 -410 -167 -583 -16 -36 -28 -66 -27 -68 2 -1 50 -25 108
-53 l104 -52 21 43 c11 24 31 70 44 103 13 33 30 74 37 90 29 67 99 342 110
430 3 28 7 57 9 65 20 76 27 416 12 570 -5 46 -10 87 -12 90 -1 3 -6 28 -9 55
-24 181 -120 491 -197 638 l-14 26 -95 -46z"/>
<path d="M960 3428 c-94 -152 -182 -358 -215 -503 -2 -5 -7 -28 -13 -50 -6
-22 -14 -62 -18 -90 -3 -27 -8 -53 -10 -56 -2 -3 -6 -41 -10 -84 -17 -198 -5
-386 37 -560 11 -44 22 -90 24 -102 28 -126 176 -441 245 -520 5 -7 10 -15 10
-18 0 -4 6 -12 13 -19 6 -7 23 -28 37 -46 244 -328 667 -594 1055 -666 11 -2
40 -8 65 -13 55 -11 164 -23 247 -26 l63 -2 -2 243 c-1 216 -3 242 -17 242
-40 -2 -193 15 -256 28 -436 96 -793 398 -953 810 -38 98 -57 162 -68 239 -3
22 -10 60 -14 85 -24 126 -2 370 48 540 32 106 102 259 153 332 11 14 19 29
19 32 0 3 -28 27 -62 52 -35 25 -74 54 -88 64 -14 11 -59 44 -100 74 -41 31
-86 65 -100 76 -14 11 -28 20 -32 20 -4 0 -30 -37 -58 -82z"/>
<path d="M2428 3375 c-2 -2 -29 -5 -61 -9 -32 -3 -62 -8 -66 -10 -4 -3 -18 -7
-32 -10 -101 -19 -271 -106 -357 -182 l-47 -42 84 -86 84 -85 46 37 c237 190
560 193 810 7 l64 -47 83 83 84 84 -43 38 c-79 72 -185 132 -297 171 -41 15
-76 26 -78 26 -1 -1 -27 4 -57 10 -47 10 -210 21 -217 15z"/>
<path d="M4065 3190 c-90 -43 -257 -120 -260 -120 -1 0 -28 -12 -59 -26 l-56
-25 16 -37 c9 -20 17 -41 18 -47 1 -5 6 -23 13 -40 40 -110 66 -262 67 -400 0
-113 -7 -213 -18 -246 -3 -8 -7 -30 -10 -49 -19 -120 -124 -376 -182 -441 -8
-8 -14 -19 -14 -23 0 -8 -62 -88 -90 -117 -8 -8 -31 -33 -50 -55 -85 -94 -223
-196 -350 -260 -41 -20 -77 -39 -79 -40 -4 -3 9 -41 34 -99 7 -16 41 -97 76
-180 34 -82 65 -154 70 -159 6 -7 98 35 209 96 150 81 352 255 482 415 107
132 258 380 241 397 -3 3 -2 6 3 6 8 0 31 47 39 80 1 3 7 17 13 32 16 39 60
187 68 233 5 22 9 42 9 45 1 3 5 28 10 55 4 28 10 59 12 70 9 37 11 350 3 410
-22 169 -37 237 -85 380 -63 186 -57 180 -130 145z"/>
<path d="M3146 2461 c-2 -9 -4 -32 -5 -51 -3 -99 -60 -242 -135 -339 l-45 -59
81 -81 c45 -45 86 -80 92 -78 33 11 157 207 197 312 30 76 51 187 53 275 l1
35 -117 1 c-100 1 -118 -1 -122 -15z"/>
<path d="M1593 2398 c16 -190 104 -391 230 -525 17 -18 35 -33 39 -33 10 0
158 152 158 163 0 5 -18 29 -39 55 -85 102 -146 260 -150 390 -1 22 -3 22
-122 22 l-121 0 5 -72z"/>
<path d="M2149 1775 c-42 -85 -49 -109 -38 -115 26 -17 195 -68 244 -75 146
-19 305 -2 442 47 l81 29 -15 37 c-15 35 -82 174 -88 180 -2 2 -18 -3 -36 -11
-154 -64 -347 -61 -521 8 -15 6 -27 -12 -69 -100z"/>
<path d="M3984 892 c-164 -154 -337 -274 -539 -372 -77 -37 -151 -71 -165 -75
-14 -4 -38 -13 -55 -20 -62 -27 -253 -79 -331 -90 -21 -3 -50 -8 -64 -11 -14
-2 -36 -6 -50 -9 -14 -3 -72 -8 -130 -11 -58 -3 -114 -7 -125 -9 -19 -2 -20
-10 -21 -111 0 -60 2 -114 4 -121 3 -11 18 -11 187 3 94 8 130 11 130 14 0 0
16 3 35 5 119 13 314 65 520 140 75 27 290 135 375 188 122 77 291 206 385
294 l84 80 -84 81 c-47 45 -87 82 -90 82 -3 0 -32 -26 -66 -58z"/>
<path d="M1339 492 c-30 -53 -55 -101 -57 -107 -1 -6 10 -16 25 -23 15 -6 48
-23 73 -36 95 -52 204 -97 347 -145 145 -48 300 -87 309 -78 6 5 37 174 38
206 1 21 -6 26 -49 38 -27 7 -63 15 -80 18 -109 20 -446 155 -508 203 -35 27
-43 20 -98 -76z"/>
</g>
</svg>
